<svg width="22" height="22" viewBox="0 0 22 22" fill="none" xmlns="http://www.w3.org/2000/svg">
<path d="M11.1673 14.4472L18.2589 7.00427C18.3773 6.88008 18.4434 6.71509 18.4434 6.54351C18.4434 6.37194 18.3773 6.20695 18.2589 6.08276L18.2509 6.07474C18.1935 6.01433 18.1244 5.96623 18.0479 5.93335C17.9713 5.90048 17.8888 5.88353 17.8055 5.88353C17.7222 5.88353 17.6397 5.90048 17.5632 5.93335C17.4866 5.96623 17.4175 6.01433 17.3601 6.07474L10.6825 13.0836L4.00753 6.07474C3.95014 6.01433 3.88105 5.96622 3.80448 5.93335C3.72791 5.90048 3.64546 5.88353 3.56213 5.88353C3.4788 5.88353 3.39634 5.90048 3.31978 5.93335C3.24321 5.96622 3.17412 6.01433 3.11673 6.07474L3.10872 6.08276C2.99033 6.20694 2.92429 6.37194 2.92429 6.54351C2.92429 6.71509 2.99033 6.88008 3.10872 7.00427L10.2004 14.4472C10.2627 14.5126 10.3377 14.5647 10.4208 14.6003C10.5039 14.6359 10.5934 14.6543 10.6838 14.6543C10.7742 14.6543 10.8637 14.6359 10.9468 14.6003C11.0299 14.5647 11.1049 14.5126 11.1673 14.4472Z" fill="white"/>
</svg>
