<svg width="29" height="29" viewBox="0 0 29 29" fill="none" xmlns="http://www.w3.org/2000/svg">
<rect x="0.4" y="0.4" width="28.2" height="28.2" rx="7.6" fill="#4DBF25" stroke="#4DBF25" stroke-width="0.8"/>
<path d="M21.5309 12.0304L13.5301 20.0312C13.4604 20.1012 13.3776 20.1566 13.2864 20.1945C13.1953 20.2324 13.0975 20.2518 12.9988 20.2518C12.9001 20.2518 12.8023 20.2324 12.7111 20.1945C12.62 20.1566 12.5372 20.1012 12.4675 20.0312L8.96714 16.5309C8.89737 16.4611 8.84203 16.3783 8.80427 16.2871C8.76651 16.196 8.74707 16.0983 8.74707 15.9996C8.74707 15.9009 8.76651 15.8032 8.80427 15.712C8.84203 15.6209 8.89737 15.5381 8.96714 15.4683C9.03691 15.3985 9.11975 15.3432 9.21091 15.3054C9.30207 15.2676 9.39977 15.2482 9.49844 15.2482C9.59712 15.2482 9.69482 15.2676 9.78598 15.3054C9.87714 15.3432 9.95998 15.3985 10.0297 15.4683L12.9994 18.438L20.4695 10.9691C20.6104 10.8282 20.8015 10.749 21.0008 10.749C21.2001 10.749 21.3912 10.8282 21.5321 10.9691C21.673 11.11 21.7522 11.3011 21.7522 11.5004C21.7522 11.6997 21.673 11.8908 21.5321 12.0317L21.5309 12.0304Z" fill="white"/>
</svg>
