<svg width="29" height="29" viewBox="0 0 29 29" fill="none" xmlns="http://www.w3.org/2000/svg">
<rect x="0.4" y="0.4" width="28.2" height="28.2" rx="7.6" fill="#D2232A" stroke="#D2232A" stroke-width="0.8"/>
<path d="M11.667 21C11.3003 21 10.9865 20.8696 10.7257 20.6087C10.4648 20.3478 10.3341 20.0338 10.3337 19.6667V11H9.66699V9.66667H13.0003V9H17.0003V9.66667H20.3337V11H19.667V19.6667C19.667 20.0333 19.5365 20.3473 19.2757 20.6087C19.0148 20.87 18.7008 21.0004 18.3337 21H11.667ZM18.3337 11H11.667V19.6667H18.3337V11ZM13.0003 18.3333H14.3337V12.3333H13.0003V18.3333ZM15.667 18.3333H17.0003V12.3333H15.667V18.3333Z" fill="white"/>
</svg>
