<svg width="18" height="18" viewBox="0 0 18 18" fill="none" xmlns="http://www.w3.org/2000/svg">
<path d="M9.40702 11.9476L15.3808 5.67796C15.4805 5.57335 15.5361 5.43436 15.5361 5.28983C15.5361 5.1453 15.4805 5.00632 15.3808 4.90171L15.374 4.89496C15.3257 4.84407 15.2675 4.80355 15.203 4.77586C15.1385 4.74817 15.069 4.73389 14.9988 4.73389C14.9286 4.73389 14.8592 4.74817 14.7947 4.77586C14.7302 4.80355 14.672 4.84407 14.6237 4.89496L8.99865 10.799L3.3759 4.89496C3.32756 4.84407 3.26936 4.80355 3.20486 4.77586C3.14036 4.74816 3.0709 4.73389 3.00071 4.73389C2.93052 4.73389 2.86106 4.74816 2.79656 4.77586C2.73206 4.80355 2.67387 4.84407 2.62553 4.89496L2.61877 4.90171C2.51905 5.00632 2.46342 5.1453 2.46342 5.28983C2.46342 5.43436 2.51905 5.57335 2.61877 5.67796L8.59252 11.9476C8.64506 12.0027 8.70824 12.0466 8.77825 12.0766C8.84825 12.1066 8.92362 12.1221 8.99977 12.1221C9.07593 12.1221 9.1513 12.1066 9.2213 12.0766C9.29131 12.0466 9.35449 12.0027 9.40702 11.9476Z" fill="#414040"/>
</svg>
