<svg width="34" height="34" viewBox="0 0 34 34" fill="none" xmlns="http://www.w3.org/2000/svg">
<path d="M14.5209 2.83301C16.7422 2.83276 18.9175 3.46552 20.7921 4.65715C22.6667 5.84879 24.1629 7.54994 25.1054 9.56134C26.0479 11.5727 26.3977 13.8111 26.1139 16.0141C25.83 18.2172 24.9242 20.2937 23.5026 22.0005L31.5634 30.0613C31.7033 30.1912 31.8055 30.3564 31.8594 30.5395C31.9132 30.7226 31.9167 30.9168 31.8694 31.1017C31.8221 31.2867 31.7259 31.4554 31.5907 31.5902C31.4556 31.725 31.2866 31.8208 31.1016 31.8676C30.9169 31.9148 30.7229 31.9114 30.5399 31.8578C30.357 31.8042 30.1918 31.7024 30.0618 31.563L22.0009 23.5022C20.5585 24.7032 18.8481 25.5391 17.0143 25.9393C15.1805 26.3395 13.2773 26.2921 11.4657 25.8012C9.65407 25.3103 7.98733 24.3903 6.60646 23.119C5.22558 21.8478 4.1712 20.2626 3.53248 18.4977C2.89377 16.7328 2.68952 14.84 2.93701 12.9794C3.18451 11.1188 3.87646 9.34526 4.95434 7.80868C6.03222 6.27209 7.46433 5.0177 9.12951 4.15163C10.7947 3.28555 12.644 2.83326 14.5209 2.83301ZM4.95842 14.5205C4.95842 15.7763 5.20576 17.0197 5.68632 18.1799C6.16688 19.3401 6.87125 20.3943 7.75921 21.2822C8.64717 22.1702 9.70133 22.8745 10.8615 23.3551C12.0217 23.8357 13.2652 24.083 14.5209 24.083C15.7767 24.083 17.0202 23.8357 18.1803 23.3551C19.3405 22.8745 20.3947 22.1702 21.2826 21.2822C22.1706 20.3943 22.875 19.3401 23.3555 18.1799C23.8361 17.0197 24.0834 15.7763 24.0834 14.5205C24.0834 11.9844 23.0759 9.55212 21.2826 7.7588C19.4893 5.96548 17.0571 4.95801 14.5209 4.95801C11.9848 4.95801 9.55253 5.96548 7.75921 7.7588C5.9659 9.55212 4.95842 11.9844 4.95842 14.5205Z" fill="#231F20" fill-opacity="0.5"/>
</svg>
