<svg width="30" height="30" viewBox="0 0 30 30" fill="none" xmlns="http://www.w3.org/2000/svg">
<path d="M12.5209 0.833008C14.7422 0.832764 16.9175 1.46552 18.7921 2.65715C20.6667 3.84879 22.1629 5.54994 23.1054 7.56134C24.0479 9.57274 24.3977 11.8111 24.1139 14.0141C23.83 16.2172 22.9242 18.2937 21.5026 20.0005L29.5634 28.0613C29.7033 28.1912 29.8055 28.3564 29.8594 28.5395C29.9132 28.7226 29.9167 28.9168 29.8694 29.1017C29.8221 29.2867 29.7259 29.4554 29.5907 29.5902C29.4556 29.725 29.2866 29.8208 29.1016 29.8676C28.9169 29.9148 28.7229 29.9114 28.5399 29.8578C28.357 29.8042 28.1918 29.7024 28.0618 29.563L20.0009 21.5022C18.5585 22.7032 16.8481 23.5391 15.0143 23.9393C13.1805 24.3395 11.2773 24.2921 9.46568 23.8012C7.65407 23.3103 5.98733 22.3903 4.60646 21.119C3.22558 19.8478 2.1712 18.2626 1.53248 16.4977C0.89377 14.7328 0.68952 12.84 0.937013 10.9794C1.18451 9.11885 1.87646 7.34526 2.95434 5.80868C4.03222 4.27209 5.46433 3.0177 7.12951 2.15163C8.79469 1.28555 10.644 0.833256 12.5209 0.833008ZM2.95842 12.5205C2.95842 13.7763 3.20576 15.0197 3.68632 16.1799C4.16688 17.3401 4.87125 18.3943 5.75921 19.2822C6.64717 20.1702 7.70133 20.8745 8.86151 21.3551C10.0217 21.8357 11.2652 22.083 12.5209 22.083C13.7767 22.083 15.0202 21.8357 16.1803 21.3551C17.3405 20.8745 18.3947 20.1702 19.2826 19.2822C20.1706 18.3943 20.875 17.3401 21.3555 16.1799C21.8361 15.0197 22.0834 13.7763 22.0834 12.5205C22.0834 9.98438 21.0759 7.55212 19.2826 5.7588C17.4893 3.96548 15.0571 2.95801 12.5209 2.95801C9.98479 2.95801 7.55253 3.96548 5.75921 5.7588C3.9659 7.55212 2.95842 9.98438 2.95842 12.5205Z" fill="#231F20" fill-opacity="0.5"/>
</svg>
